Coordinates
version=1
nRows=8
nColumns=36
inDegrees=yes

Units are S.I. units (second, meters, Newtons, ...)
If the header above contains a line with 'inDegrees', this indicates whether rotational values are in degrees (yes) or radians (no).

endheader
time	pelvis_tilt	pelvis_list	pelvis_rotation	pelvis_tx	pelvis_ty	pelvis_tz	hip_flexion_r	hip_adduction_r	hip_rotation_r	knee_angle_r	knee_angle_r_beta	ankle_angle_r	subtalar_angle_r	mtp_angle_r	hip_flexion_l	hip_adduction_l	hip_rotation_l	knee_angle_l	knee_angle_l_beta	ankle_angle_l	subtalar_angle_l	mtp_angle_l	lumbar_extension	lumbar_bending	lumbar_rotation	arm_flex_r	arm_add_r	arm_rot_r	elbow_flex_r	pro_sup_r	arm_flex_l	arm_add_l	arm_rot_l	elbow_flex_l	pro_sup_l
      6.28333330	     12.44368135	     -6.10275572	      8.94861045	     -0.15634291	      0.89534500	     -0.01894979	     37.43401162	     -1.60113783	     -7.11994685	     19.24830701	      0.33594633	     -8.84513372	     -0.68095503	     -7.49999987	     -3.53212902	     -2.24315954	     -2.35470369	     19.68301812	      0.34353347	      7.25115841	     -7.33596020	     -7.49999987	     -9.95885920	      0.78271242	     -5.23832280	     33.03740080	      8.67539471	     61.87123029	    124.50612985	     81.01402124	     44.69090644	      4.83714376	     64.78760758	    132.35350662	     62.45969149
      6.30000000	     12.48836329	     -6.01799294	      9.05183360	     -0.15458893	      0.89581071	     -0.01934614	     37.44526502	     -1.63367830	     -7.00680468	     19.32530930	      0.33729028	     -8.77502898	     -0.71002141	     -7.49999987	     -3.58747008	     -2.20249176	     -2.38410985	     19.78181279	      0.34525777	      7.29305258	     -7.35171553	     -7.49999987	    -10.00266172	      0.88851563	     -5.21622203	     32.94020319	      8.65149459	     61.82940311	    124.45378836	     80.33622130	     44.75887298	      4.87660199	     64.84304654	    132.35717384	     62.35410855
      6.31666670	     12.38517145	     -6.04239883	      9.08921645	     -0.15495095	      0.89395613	     -0.02001344	     37.68618180	     -1.62576566	     -6.95182107	     19.31438657	      0.33709964	     -8.91653206	     -0.69654223	     -7.49999987	     -3.46560490	     -2.14290782	     -2.15616710	     19.77771794	      0.34518630	      7.79453441	     -7.29086914	     -7.49999987	     -9.85157094	      1.08908574	     -5.26164405	     32.86867428	      8.61134586	     61.67147299	    124.53417669	     79.96986801	     44.96231668	      4.78371573	     64.63629443	    132.07353398	     62.32830845
      6.33333330	     12.45015418	     -6.01920097	      9.08306333	     -0.15302505	      0.89478818	     -0.02044890	     37.60416292	     -1.55001056	     -6.93864130	     19.26819160	      0.33629338	     -8.87629380	     -0.56323568	     -7.49999987	     -3.59689544	     -2.13929480	     -2.13950073	     19.77392712	      0.34512013	      7.90608833	     -7.51582929	     -7.49999987	     -9.92785006	      1.23632715	     -5.33273105	     32.93733399	      8.67420306	     61.49780297	    124.24421663	     83.02568836	     45.11262973	      4.79607364	     64.58150687	    132.02688080	     61.96246816
      6.35000000	     12.45416802	     -6.01984227	      9.10885342	     -0.15356937	      0.89252829	     -0.02054901	     37.77890646	     -1.48576065	     -6.57383009	     19.48949795	      0.34015591	     -8.86855254	     -0.81966134	     -7.49999987	     -3.70738482	     -2.08955266	     -2.04462853	     19.68200024	      0.34351571	      8.41892367	     -7.66554430	     -7.49999987	     -9.80837529	      1.39926895	     -5.52278781	     33.05826428	      8.66991862	     61.61043916	    124.08469438	     81.54928432	     45.18153087	      4.64581064	     64.33864640	    131.89826757	     61.83886580
      6.36666670	     12.40369765	     -6.03397712	      9.08210173	     -0.15241253	      0.89239880	     -0.02041942	     37.98539502	     -1.38245963	     -6.34513266	     19.75544389	      0.34479754	     -8.83340256	     -1.16073565	     -7.49999987	     -3.78572582	     -2.05747520	     -1.92360714	     19.56396521	      0.34145561	      8.91241391	     -7.79029350	     -7.49999987	     -9.64745558	      1.51077653	     -5.72899129	     33.32149994	      8.75489228	     61.62134112	    123.99654186	     81.06457974	     45.25048973	      4.48673004	     63.95821474	    131.65733168	     61.73418627
      6.38333330	     12.29514252	     -5.95878199	      9.12565517	     -0.15164972	      0.89347196	     -0.02149498	     37.97561252	     -1.41437957	     -6.36615208	     19.54843041	      0.34118447	     -8.76453208	     -1.01893163	     -7.49999987	     -3.74290240	     -1.97912016	     -2.05207009	     19.56564549	      0.34148493	      8.73689906	     -7.76571074	     -7.49999987	     -9.49259930	      1.52583239	     -5.81486801	     33.27815164	      8.78608219	     61.64269909	    123.89258701	     80.16928691	     45.13428345	      4.51859558	     63.96986542	    131.70439912	     61.65933017
      6.40000000	     12.35735422	     -5.95251527	      9.21813001	     -0.15199170	      0.89299077	     -0.02187687	     37.90336497	     -1.38144888	     -6.32129644	     19.48040022	      0.33999712	     -8.79066265	     -1.02395670	     -7.49999987	     -3.97840653	     -1.90915373	     -1.95257220	     19.29455979	      0.33675360	      8.87782989	     -7.84137061	     -7.49999987	     -9.39561672	      1.69782222	     -6.04233710	     33.60552259	      8.83830058	     61.62598974	    123.70806559	     79.30459908	     45.14360274	      4.42985174	     63.68729836	    131.60314174	     61.55000998
